<svg width="28" height="28" viewBox="0 0 28 28" fill="none" xmlns="http://www.w3.org/2000/svg">
<path d="M22.3327 14.4883V12.3333H20.666V14.8333C20.6661 15.0543 20.7539 15.2663 20.9102 15.4225L23.166 17.6783V19H4.83268V17.6783L7.08852 15.4225C7.24481 15.2663 7.33263 15.0543 7.33268 14.8333V11.5C7.33036 10.329 7.6371 9.17811 8.22192 8.1636C8.80674 7.14908 9.64893 6.30686 10.6634 5.722C11.6779 5.13715 12.8288 4.83037 13.9998 4.83265C15.1708 4.83493 16.3205 5.14619 17.3327 5.735V3.8725C16.5394 3.52127 15.6957 3.2974 14.8327 3.20917V1.5H13.166V3.20833C11.1115 3.41744 9.20748 4.38093 7.82216 5.91248C6.43683 7.44404 5.6686 9.43486 5.66602 11.5V14.4883L3.41018 16.7442C3.25389 16.9004 3.16606 17.1123 3.16602 17.3333V19.8333C3.16602 20.0543 3.25381 20.2663 3.41009 20.4226C3.56637 20.5789 3.77834 20.6667 3.99935 20.6667H9.83268V21.5C9.83268 22.6051 10.2717 23.6649 11.0531 24.4463C11.8345 25.2277 12.8943 25.6667 13.9993 25.6667C15.1044 25.6667 16.1642 25.2277 16.9456 24.4463C17.727 23.6649 18.166 22.6051 18.166 21.5V20.6667H23.9993C24.2204 20.6667 24.4323 20.5789 24.5886 20.4226C24.7449 20.2663 24.8327 20.0543 24.8327 19.8333V17.3333C24.8326 17.1123 24.7448 16.9004 24.5885 16.7442L22.3327 14.4883ZM16.4993 21.5C16.4993 22.163 16.236 22.7989 15.7671 23.2678C15.2983 23.7366 14.6624 24 13.9993 24C13.3363 24 12.7004 23.7366 12.2316 23.2678C11.7627 22.7989 11.4993 22.163 11.4993 21.5V20.6667H16.4993V21.5Z" fill="black"/>
<path d="M22.3333 10.6667C24.1743 10.6667 25.6667 9.17428 25.6667 7.33333C25.6667 5.49238 24.1743 4 22.3333 4C20.4924 4 19 5.49238 19 7.33333C19 9.17428 20.4924 10.6667 22.3333 10.6667Z" fill="black"/>
</svg>
